{
	"asset":{
		"generator":"Khronos glTF Blender I/O v3.6.27",
		"version":"2.0"
	},
	"scene":0,
	"scenes":[
		{
			"name":"Scene",
			"nodes":[
				0
			]
		}
	],
	"nodes":[
		{
			"mesh":0,
			"name":"Brain_Part_04"
		}
	],
	"materials":[
		{
			"doubleSided":true,
			"name":"BRAIN_PROCEDURAL_TEXTURE",
			"pbrMetallicRoughness":{
				"metallicFactor":0
			}
		}
	],
	"meshes":[
		{
			"name":"Untitled.003",
			"primitives":[
				{
					"attributes":{
						"POSITION":0,
						"NORMAL":1,
						"TEXCOORD_0":2,
						"TEXCOORD_1":3
					},
					"indices":4,
					"material":0
				}
			]
		}
	],
	"accessors":[
		{
			"bufferView":0,
			"componentType":5126,
			"count":48551,
			"max":[
				2.1936488151550293,
				1.7313743829727173,
				1.9100483655929565
			],
			"min":[
				-2.535435914993286,
				-2.2895336151123047,
				-1.8857663869857788
			],
			"type":"VEC3"
		},
		{
			"bufferView":1,
			"componentType":5126,
			"count":48551,
			"type":"VEC3"
		},
		{
			"bufferView":2,
			"componentType":5126,
			"count":48551,
			"type":"VEC2"
		},
		{
			"bufferView":3,
			"componentType":5126,
			"count":48551,
			"type":"VEC2"
		},
		{
			"bufferView":4,
			"componentType":5123,
			"count":279780,
			"type":"SCALAR"
		}
	],
	"bufferViews":[
		{
			"buffer":0,
			"byteLength":582612,
			"byteOffset":0,
			"target":34962
		},
		{
			"buffer":0,
			"byteLength":582612,
			"byteOffset":582612,
			"target":34962
		},
		{
			"buffer":0,
			"byteLength":388408,
			"byteOffset":1165224,
			"target":34962
		},
		{
			"buffer":0,
			"byteLength":388408,
			"byteOffset":1553632,
			"target":34962
		},
		{
			"buffer":0,
			"byteLength":559560,
			"byteOffset":1942040,
			"target":34963
		}
	],
	"buffers":[
		{
			"byteLength":2501600,
			"uri":"data:application/octet-stream;base64,"
		}
	]
}
