{
	"asset":{
		"generator":"Khronos glTF Blender I/O v3.6.27",
		"version":"2.0"
	},
	"scene":0,
	"scenes":[
		{
			"name":"Scene",
			"nodes":[
				0
			]
		}
	],
	"nodes":[
		{
			"mesh":0,
			"name":"ear",
			"rotation":[
				0.4723726212978363,
				-0.4723726809024811,
				0.526178777217865,
				0.5261788368225098
			],
			"scale":[
				0.2072792798280716,
				0.2072792649269104,
				0.2072792798280716
			],
			"translation":[
				0,
				0.4786143898963928,
				0.2944050431251526
			]
		}
	],
	"materials":[
		{
			"doubleSided":true,
			"name":"Simple Skin",
			"pbrMetallicRoughness":{}
		}
	],
	"meshes":[
		{
			"name":"ear.001",
			"primitives":[
				{
					"attributes":{
						"POSITION":0,
						"NORMAL":1,
						"TEXCOORD_0":2,
						"TEXCOORD_1":3
					},
					"indices":4,
					"material":0
				}
			]
		}
	],
	"accessors":[
		{
			"bufferView":0,
			"componentType":5126,
			"count":657,
			"max":[
				9.196670532226562,
				1.3375325202941895,
				6.711325168609619
			],
			"min":[
				6.6847639083862305,
				-4.612099647521973,
				-0.14394892752170563
			],
			"type":"VEC3"
		},
		{
			"bufferView":1,
			"componentType":5126,
			"count":657,
			"type":"VEC3"
		},
		{
			"bufferView":2,
			"componentType":5126,
			"count":657,
			"type":"VEC2"
		},
		{
			"bufferView":3,
			"componentType":5126,
			"count":657,
			"type":"VEC2"
		},
		{
			"bufferView":4,
			"componentType":5123,
			"count":1863,
			"type":"SCALAR"
		}
	],
	"bufferViews":[
		{
			"buffer":0,
			"byteLength":7884,
			"byteOffset":0,
			"target":34962
		},
		{
			"buffer":0,
			"byteLength":7884,
			"byteOffset":7884,
			"target":34962
		},
		{
			"buffer":0,
			"byteLength":5256,
			"byteOffset":15768,
			"target":34962
		},
		{
			"buffer":0,
			"byteLength":5256,
			"byteOffset":21024,
			"target":34962
		},
		{
			"buffer":0,
			"byteLength":3726,
			"byteOffset":26280,
			"target":34963
		}
	],
	"buffers":[
		{
			"byteLength":30008,
			"uri":"data:application/octet-stream;base64,"
		}
	]
}
