{
	"asset":{
		"generator":"Khronos glTF Blender I/O v3.6.27",
		"version":"2.0"
	},
	"extensionsUsed":[
		"KHR_materials_specular",
		"KHR_materials_ior"
	],
	"scene":0,
	"scenes":[
		{
			"name":"Scene",
			"nodes":[
				0
			]
		}
	],
	"nodes":[
		{
			"mesh":0,
			"name":"woman_head",
			"rotation":[
				0,
				-0.7071068286895752,
				0,
				0.7071067690849304
			],
			"scale":[
				25.328323364257812,
				25.328323364257812,
				25.328323364257812
			],
			"translation":[
				0.52418053150177,
				-4.510249614715576,
				0.07550618797540665
			]
		}
	],
	"materials":[
		{
			"doubleSided":true,
			"extensions":{
				"KHR_materials_specular":{
					"specularColorFactor":[
						0,
						0,
						0
					]
				},
				"KHR_materials_ior":{
					"ior":1.4500000476837158
				}
			},
			"name":"blue_steel",
			"pbrMetallicRoughness":{
				"metallicFactor":0.8681818246841431,
				"roughnessFactor":0.37272727489471436
			}
		},
		{
			"doubleSided":true,
			"extensions":{
				"KHR_materials_specular":{
					"specularColorFactor":[
						0,
						0,
						0
					]
				},
				"KHR_materials_ior":{
					"ior":1.4500000476837158
				}
			},
			"name":"black_steel",
			"pbrMetallicRoughness":{
				"metallicFactor":0.8681818246841431,
				"roughnessFactor":0.37272727489471436
			}
		}
	],
	"meshes":[
		{
			"name":"WomanHead_mesh",
			"primitives":[
				{
					"attributes":{
						"POSITION":0,
						"NORMAL":1,
						"TEXCOORD_0":2
					},
					"indices":3,
					"material":0
				},
				{
					"attributes":{
						"POSITION":4,
						"NORMAL":5,
						"TEXCOORD_0":6
					},
					"indices":7,
					"material":1
				}
			]
		}
	],
	"accessors":[
		{
			"bufferView":0,
			"componentType":5126,
			"count":23868,
			"max":[
				0.09754779189825058,
				0.26473209261894226,
				0.1595618575811386
			],
			"min":[
				-0.10934804379940033,
				0.005649645812809467,
				-0.0681052953004837
			],
			"type":"VEC3"
		},
		{
			"bufferView":1,
			"componentType":5126,
			"count":23868,
			"type":"VEC3"
		},
		{
			"bufferView":2,
			"componentType":5126,
			"count":23868,
			"type":"VEC2"
		},
		{
			"bufferView":3,
			"componentType":5123,
			"count":117558,
			"type":"SCALAR"
		},
		{
			"bufferView":4,
			"componentType":5126,
			"count":982,
			"max":[
				0.03711448982357979,
				0.2596943974494934,
				0.06557115167379379
			],
			"min":[
				-0.03811486065387726,
				0.23843155801296234,
				-0.010415766388177872
			],
			"type":"VEC3"
		},
		{
			"bufferView":5,
			"componentType":5126,
			"count":982,
			"type":"VEC3"
		},
		{
			"bufferView":6,
			"componentType":5126,
			"count":982,
			"type":"VEC2"
		},
		{
			"bufferView":7,
			"componentType":5123,
			"count":1608,
			"type":"SCALAR"
		}
	],
	"bufferViews":[
		{
			"buffer":0,
			"byteLength":286416,
			"byteOffset":0,
			"target":34962
		},
		{
			"buffer":0,
			"byteLength":286416,
			"byteOffset":286416,
			"target":34962
		},
		{
			"buffer":0,
			"byteLength":190944,
			"byteOffset":572832,
			"target":34962
		},
		{
			"buffer":0,
			"byteLength":235116,
			"byteOffset":763776,
			"target":34963
		},
		{
			"buffer":0,
			"byteLength":11784,
			"byteOffset":998892,
			"target":34962
		},
		{
			"buffer":0,
			"byteLength":11784,
			"byteOffset":1010676,
			"target":34962
		},
		{
			"buffer":0,
			"byteLength":7856,
			"byteOffset":1022460,
			"target":34962
		},
		{
			"buffer":0,
			"byteLength":3216,
			"byteOffset":1030316,
			"target":34963
		}
	],
	"buffers":[
		{
			"byteLength":1033532,
			"uri":"data:application/octet-stream;base64,"
		}
	]
}
