{
	"asset":{
		"generator":"Khronos glTF Blender I/O v3.6.27",
		"version":"2.0"
	},
	"scene":0,
	"scenes":[
		{
			"name":"Scene",
			"nodes":[
				0
			]
		}
	],
	"nodes":[
		{
			"mesh":0,
			"name":"Cylinder",
			"rotation":[
				0.11323628574609756,
				-0.8688176870346069,
				0.44554373621940613,
				0.18391352891921997
			],
			"scale":[
				-0.14905621111392975,
				-0.023871121928095818,
				-0.14905618131160736
			]
		}
	],
	"materials":[
		{
			"doubleSided":true,
			"name":"Material.001",
			"pbrMetallicRoughness":{
				"baseColorFactor":[
					0.11068878322839737,
					0.11068878322839737,
					0.11068878322839737,
					1
				],
				"metallicFactor":0,
				"roughnessFactor":0.5
			}
		},
		{
			"doubleSided":true,
			"name":"Rope",
			"pbrMetallicRoughness":{
				"metallicFactor":0,
				"roughnessFactor":0.699999988079071
			}
		},
		{
			"doubleSided":true,
			"name":"Metallic Simple",
			"pbrMetallicRoughness":{}
		}
	],
	"meshes":[
		{
			"name":"Cylinder",
			"primitives":[
				{
					"attributes":{
						"POSITION":0,
						"NORMAL":1,
						"TEXCOORD_0":2,
						"TEXCOORD_1":3
					},
					"indices":4,
					"material":0
				},
				{
					"attributes":{
						"POSITION":5,
						"NORMAL":6,
						"TEXCOORD_0":7,
						"TEXCOORD_1":8
					},
					"indices":9,
					"material":1
				},
				{
					"attributes":{
						"POSITION":10,
						"NORMAL":11,
						"TEXCOORD_0":12,
						"TEXCOORD_1":13
					},
					"indices":14,
					"material":2
				}
			]
		}
	],
	"accessors":[
		{
			"bufferView":0,
			"componentType":5126,
			"count":480,
			"max":[
				3.676814079284668,
				-17.7819766998291,
				6.093348503112793
			],
			"min":[
				-8.936904907226562,
				-49.964561462402344,
				-2.330402374267578
			],
			"type":"VEC3"
		},
		{
			"bufferView":1,
			"componentType":5126,
			"count":480,
			"type":"VEC3"
		},
		{
			"bufferView":2,
			"componentType":5126,
			"count":480,
			"type":"VEC2"
		},
		{
			"bufferView":3,
			"componentType":5126,
			"count":480,
			"type":"VEC2"
		},
		{
			"bufferView":4,
			"componentType":5123,
			"count":1002,
			"type":"SCALAR"
		},
		{
			"bufferView":5,
			"componentType":5126,
			"count":6728,
			"max":[
				-1.9449729919433594,
				-25.265419006347656,
				0.8963618278503418
			],
			"min":[
				-7.0382561683654785,
				-45.68495178222656,
				-1.6770858764648438
			],
			"type":"VEC3"
		},
		{
			"bufferView":6,
			"componentType":5126,
			"count":6728,
			"type":"VEC3"
		},
		{
			"bufferView":7,
			"componentType":5126,
			"count":6728,
			"type":"VEC2"
		},
		{
			"bufferView":8,
			"componentType":5126,
			"count":6728,
			"type":"VEC2"
		},
		{
			"bufferView":9,
			"componentType":5123,
			"count":19047,
			"type":"SCALAR"
		},
		{
			"bufferView":10,
			"componentType":5126,
			"count":4072,
			"max":[
				3.7505950927734375,
				-15.17950439453125,
				6.7312164306640625
			],
			"min":[
				-9.72966480255127,
				-49.81053924560547,
				-2.6739845275878906
			],
			"type":"VEC3"
		},
		{
			"bufferView":11,
			"componentType":5126,
			"count":4072,
			"type":"VEC3"
		},
		{
			"bufferView":12,
			"componentType":5126,
			"count":4072,
			"type":"VEC2"
		},
		{
			"bufferView":13,
			"componentType":5126,
			"count":4072,
			"type":"VEC2"
		},
		{
			"bufferView":14,
			"componentType":5123,
			"count":5436,
			"type":"SCALAR"
		}
	],
	"bufferViews":[
		{
			"buffer":0,
			"byteLength":5760,
			"byteOffset":0,
			"target":34962
		},
		{
			"buffer":0,
			"byteLength":5760,
			"byteOffset":5760,
			"target":34962
		},
		{
			"buffer":0,
			"byteLength":3840,
			"byteOffset":11520,
			"target":34962
		},
		{
			"buffer":0,
			"byteLength":3840,
			"byteOffset":15360,
			"target":34962
		},
		{
			"buffer":0,
			"byteLength":2004,
			"byteOffset":19200,
			"target":34963
		},
		{
			"buffer":0,
			"byteLength":80736,
			"byteOffset":21204,
			"target":34962
		},
		{
			"buffer":0,
			"byteLength":80736,
			"byteOffset":101940,
			"target":34962
		},
		{
			"buffer":0,
			"byteLength":53824,
			"byteOffset":182676,
			"target":34962
		},
		{
			"buffer":0,
			"byteLength":53824,
			"byteOffset":236500,
			"target":34962
		},
		{
			"buffer":0,
			"byteLength":38094,
			"byteOffset":290324,
			"target":34963
		},
		{
			"buffer":0,
			"byteLength":48864,
			"byteOffset":328420,
			"target":34962
		},
		{
			"buffer":0,
			"byteLength":48864,
			"byteOffset":377284,
			"target":34962
		},
		{
			"buffer":0,
			"byteLength":32576,
			"byteOffset":426148,
			"target":34962
		},
		{
			"buffer":0,
			"byteLength":32576,
			"byteOffset":458724,
			"target":34962
		},
		{
			"buffer":0,
			"byteLength":10872,
			"byteOffset":491300,
			"target":34963
		}
	],
	"buffers":[
		{
			"byteLength":502172,
			"uri":"data:application/octet-stream;base64,"
		}
	]
}
