{
	"asset":{
		"generator":"Khronos glTF Blender I/O v3.6.27",
		"version":"2.0"
	},
	"scene":0,
	"scenes":[
		{
			"name":"Scene",
			"nodes":[
				0
			]
		}
	],
	"nodes":[
		{
			"mesh":0,
			"name":"Cylinder",
			"rotation":[
				0.09747231751680374,
				-0.8707271218299866,
				0.44213753938674927,
				0.19195783138275146
			],
			"scale":[
				-0.14905619621276855,
				-0.02387112006545067,
				-0.14905618131160736
			]
		}
	],
	"materials":[
		{
			"doubleSided":true,
			"name":"Material.001",
			"pbrMetallicRoughness":{
				"baseColorFactor":[
					0.11068878322839737,
					0.11068878322839737,
					0.11068878322839737,
					1
				],
				"metallicFactor":0,
				"roughnessFactor":0.5
			}
		},
		{
			"doubleSided":true,
			"name":"Rope",
			"pbrMetallicRoughness":{
				"metallicFactor":0,
				"roughnessFactor":0.699999988079071
			}
		},
		{
			"doubleSided":true,
			"name":"Metallic Simple",
			"pbrMetallicRoughness":{}
		}
	],
	"meshes":[
		{
			"name":"Cylinder",
			"primitives":[
				{
					"attributes":{
						"POSITION":0,
						"NORMAL":1,
						"TEXCOORD_0":2,
						"TEXCOORD_1":3
					},
					"indices":4,
					"material":0
				},
				{
					"attributes":{
						"POSITION":5,
						"NORMAL":6,
						"TEXCOORD_0":7,
						"TEXCOORD_1":8
					},
					"indices":9,
					"material":1
				},
				{
					"attributes":{
						"POSITION":10,
						"NORMAL":11,
						"TEXCOORD_0":12,
						"TEXCOORD_1":13
					},
					"indices":14,
					"material":2
				}
			]
		}
	],
	"accessors":[
		{
			"bufferView":0,
			"componentType":5126,
			"count":444,
			"max":[
				-0.6307783126831055,
				-17.7819766998291,
				6.093348503112793
			],
			"min":[
				-8.936904907226562,
				-49.964561462402344,
				-2.330402374267578
			],
			"type":"VEC3"
		},
		{
			"bufferView":1,
			"componentType":5126,
			"count":444,
			"type":"VEC3"
		},
		{
			"bufferView":2,
			"componentType":5126,
			"count":444,
			"type":"VEC2"
		},
		{
			"bufferView":3,
			"componentType":5126,
			"count":444,
			"type":"VEC2"
		},
		{
			"bufferView":4,
			"componentType":5123,
			"count":960,
			"type":"SCALAR"
		},
		{
			"bufferView":5,
			"componentType":5126,
			"count":9135,
			"max":[
				0.2364940643310547,
				-15.29464340209961,
				0.8963618278503418
			],
			"min":[
				-7.0382561683654785,
				-45.68495178222656,
				-2.050765037536621
			],
			"type":"VEC3"
		},
		{
			"bufferView":6,
			"componentType":5126,
			"count":9135,
			"type":"VEC3"
		},
		{
			"bufferView":7,
			"componentType":5126,
			"count":9135,
			"type":"VEC2"
		},
		{
			"bufferView":8,
			"componentType":5126,
			"count":9135,
			"type":"VEC2"
		},
		{
			"bufferView":9,
			"componentType":5123,
			"count":25920,
			"type":"SCALAR"
		},
		{
			"bufferView":10,
			"componentType":5126,
			"count":4247,
			"max":[
				3.7505950927734375,
				-15.17950439453125,
				6.7312164306640625
			],
			"min":[
				-9.72966480255127,
				-49.81053924560547,
				-2.6739845275878906
			],
			"type":"VEC3"
		},
		{
			"bufferView":11,
			"componentType":5126,
			"count":4247,
			"type":"VEC3"
		},
		{
			"bufferView":12,
			"componentType":5126,
			"count":4247,
			"type":"VEC2"
		},
		{
			"bufferView":13,
			"componentType":5126,
			"count":4247,
			"type":"VEC2"
		},
		{
			"bufferView":14,
			"componentType":5123,
			"count":5868,
			"type":"SCALAR"
		}
	],
	"bufferViews":[
		{
			"buffer":0,
			"byteLength":5328,
			"byteOffset":0,
			"target":34962
		},
		{
			"buffer":0,
			"byteLength":5328,
			"byteOffset":5328,
			"target":34962
		},
		{
			"buffer":0,
			"byteLength":3552,
			"byteOffset":10656,
			"target":34962
		},
		{
			"buffer":0,
			"byteLength":3552,
			"byteOffset":14208,
			"target":34962
		},
		{
			"buffer":0,
			"byteLength":1920,
			"byteOffset":17760,
			"target":34963
		},
		{
			"buffer":0,
			"byteLength":109620,
			"byteOffset":19680,
			"target":34962
		},
		{
			"buffer":0,
			"byteLength":109620,
			"byteOffset":129300,
			"target":34962
		},
		{
			"buffer":0,
			"byteLength":73080,
			"byteOffset":238920,
			"target":34962
		},
		{
			"buffer":0,
			"byteLength":73080,
			"byteOffset":312000,
			"target":34962
		},
		{
			"buffer":0,
			"byteLength":51840,
			"byteOffset":385080,
			"target":34963
		},
		{
			"buffer":0,
			"byteLength":50964,
			"byteOffset":436920,
			"target":34962
		},
		{
			"buffer":0,
			"byteLength":50964,
			"byteOffset":487884,
			"target":34962
		},
		{
			"buffer":0,
			"byteLength":33976,
			"byteOffset":538848,
			"target":34962
		},
		{
			"buffer":0,
			"byteLength":33976,
			"byteOffset":572824,
			"target":34962
		},
		{
			"buffer":0,
			"byteLength":11736,
			"byteOffset":606800,
			"target":34963
		}
	],
	"buffers":[
		{
			"byteLength":618536,
			"uri":"data:application/octet-stream;base64,"
		}
	]
}
