{
	"asset":{
		"generator":"Khronos glTF Blender I/O v3.6.27",
		"version":"2.0"
	},
	"scene":0,
	"scenes":[
		{
			"name":"Scene",
			"nodes":[
				0
			]
		}
	],
	"nodes":[
		{
			"mesh":0,
			"name":"Brain_Part_06"
		}
	],
	"materials":[
		{
			"doubleSided":true,
			"name":"BRAIN_PROCEDURAL_TEXTURE",
			"pbrMetallicRoughness":{
				"metallicFactor":0
			}
		}
	],
	"meshes":[
		{
			"name":"Untitled.002",
			"primitives":[
				{
					"attributes":{
						"POSITION":0,
						"NORMAL":1,
						"TEXCOORD_0":2,
						"TEXCOORD_1":3
					},
					"indices":4,
					"material":0
				}
			]
		}
	],
	"accessors":[
		{
			"bufferView":0,
			"componentType":5126,
			"count":47859,
			"max":[
				0.454438716173172,
				0.3586699962615967,
				0.3956853151321411
			],
			"min":[
				-0.5252363681793213,
				-0.4742993414402008,
				-0.39065393805503845
			],
			"type":"VEC3"
		},
		{
			"bufferView":1,
			"componentType":5126,
			"count":47859,
			"type":"VEC3"
		},
		{
			"bufferView":2,
			"componentType":5126,
			"count":47859,
			"type":"VEC2"
		},
		{
			"bufferView":3,
			"componentType":5126,
			"count":47859,
			"type":"VEC2"
		},
		{
			"bufferView":4,
			"componentType":5123,
			"count":279753,
			"type":"SCALAR"
		}
	],
	"bufferViews":[
		{
			"buffer":0,
			"byteLength":574308,
			"byteOffset":0,
			"target":34962
		},
		{
			"buffer":0,
			"byteLength":574308,
			"byteOffset":574308,
			"target":34962
		},
		{
			"buffer":0,
			"byteLength":382872,
			"byteOffset":1148616,
			"target":34962
		},
		{
			"buffer":0,
			"byteLength":382872,
			"byteOffset":1531488,
			"target":34962
		},
		{
			"buffer":0,
			"byteLength":559506,
			"byteOffset":1914360,
			"target":34963
		}
	],
	"buffers":[
		{
			"byteLength":2473868,
			"uri":"data:application/octet-stream;base64,"
		}
	]
}
