<?xml version="1.0" encoding="UTF-8"?>
<svg version="1.1" xmlns="http://www.w3.org/2000/svg" width="154" height="178">
<path d="M0 0 C50.82 0 101.64 0 154 0 C154 58.74 154 117.48 154 178 C103.18 178 52.36 178 0 178 C0 119.26 0 60.52 0 0 Z " fill="#000000" transform="translate(0,0)"/>
<path d="M0 0 C8.02554892 2.59722519 15.14340216 1.86491788 23.125 -0.5 C23.125 0.16 23.125 0.82 23.125 1.5 C22.403125 2.03625 21.68125 2.5725 20.9375 3.125 C16.42904854 6.93213679 13.3174561 11.6850952 12.125 17.5 C12.06041112 18.93288685 12.04713833 20.36866224 12.07495117 21.80273438 C12.08793747 22.64461304 12.10092377 23.4864917 12.11430359 24.35388184 C12.13201309 25.25803833 12.1497226 26.16219482 12.16796875 27.09375 C12.19037902 29.03123951 12.21183198 30.96874029 12.23242188 32.90625 C12.26930674 35.94302238 12.31209102 38.97921104 12.37182617 42.015625 C12.77662016 63.62349285 12.77662016 63.62349285 8.125 73.5 C7.63515625 74.60859375 7.1453125 75.7171875 6.640625 76.859375 C6.01414062 78.04273437 6.01414062 78.04273437 5.375 79.25 C4.94703125 80.06984375 4.5190625 80.8896875 4.078125 81.734375 C3.76359375 82.31703125 3.4490625 82.8996875 3.125 83.5 C12.0495345 76.53886309 17.34656286 68.79790109 19.125 57.5 C19.56309076 49.52437601 19.19607656 41.49820851 18.98803711 33.51904297 C18.92125983 30.73928902 18.87959836 27.95994011 18.83984375 25.1796875 C18.80978745 24.34194794 18.77973114 23.50420837 18.74876404 22.64108276 C18.6673824 16.08269972 20.07978988 9.93764072 24.53770447 4.90524292 C29.30913966 0.70349214 33.66790127 -0.77607467 39.9375 -0.625 C41.40123047 -0.59792969 41.40123047 -0.59792969 42.89453125 -0.5703125 C43.63058594 -0.54710937 44.36664063 -0.52390625 45.125 -0.5 C45.125 0.16 45.125 0.82 45.125 1.5 C44.51011719 1.65855469 43.89523438 1.81710938 43.26171875 1.98046875 C42.45347656 2.21378906 41.64523438 2.44710937 40.8125 2.6875 C40.01199219 2.90792969 39.21148437 3.12835938 38.38671875 3.35546875 C35.28710299 4.92401351 34.58875198 6.34666151 33.125 9.5 C32.90713751 12.37451406 32.84467092 15.01609418 32.9375 17.87890625 C32.95453979 19.09077858 32.95453979 19.09077858 32.97192383 20.32713318 C33.02058677 23.76335364 33.10432839 27.19847598 33.18652344 30.6340332 C33.52793572 46.25963481 32.8098604 59.97787365 21.734375 72.12109375 C19.57343599 74.29902127 17.38265516 76.42295726 15.125 78.5 C16.23294922 78.2834375 16.23294922 78.2834375 17.36328125 78.0625 C30.0002958 75.75026354 40.98874706 75.07583137 52.125 82.5 C54.5832293 82.66671852 54.5832293 82.66671852 57.125 82.5 C58.445 82.5 59.765 82.5 61.125 82.5 C59.60857123 86.09844449 57.47526558 88.35713143 54.6875 91.0625 C53.90503906 91.82691406 53.12257813 92.59132813 52.31640625 93.37890625 C51.59324219 94.07886719 50.87007813 94.77882813 50.125 95.5 C49.61839844 96.10714844 49.11179687 96.71429688 48.58984375 97.33984375 C47.125 98.5 47.125 98.5 45.3046875 98.37109375 C41.46600288 96.83699577 37.85876514 94.87933812 34.1953125 92.97265625 C22.59569336 87.40897124 10.11530848 88.49764843 -1.875 92.5 C-4.55170221 93.52021846 -7.19301623 94.58031254 -9.81640625 95.73046875 C-11.875 96.5 -11.875 96.5 -14.875 96.5 C-13.31028652 92.65933963 -10.81465873 90.36966685 -7.875 87.5 C-2.99774143 81.90549752 -0.22822395 77.06330207 -0.53125 69.55078125 C-0.76774244 67.3158539 -0.76774244 67.3158539 -2.4375 65.0625 C-5.4666072 63.12076462 -8.38450448 62.30549897 -11.875 61.5 C-11.875 60.84 -11.875 60.18 -11.875 59.5 C-8.20634759 57.05423173 -6.20299657 57.26392746 -1.875 57.5 C-1.215 57.83 -0.555 58.16 0.125 58.5 C-0.1225 57.241875 -0.37 55.98375 -0.625 54.6875 C-0.76421875 53.97980469 -0.9034375 53.27210937 -1.046875 52.54296875 C-2.1494559 49.82292248 -3.33690538 48.94530388 -5.875 47.5 C-8.45373609 46.93015552 -8.45373609 46.93015552 -11.125 46.8125 C-12.01703125 46.74675781 -12.9090625 46.68101563 -13.828125 46.61328125 C-14.50359375 46.57589844 -15.1790625 46.53851563 -15.875 46.5 C-14.90721562 44.08053905 -14.22757979 42.73957345 -12.046875 41.2578125 C-9.59687427 40.40295613 -7.71209998 40.29890882 -5.125 40.375 C-4.32578125 40.39304688 -3.5265625 40.41109375 -2.703125 40.4296875 C-2.09984375 40.45289063 -1.4965625 40.47609375 -0.875 40.5 C-0.94460937 39.55640625 -1.01421875 38.6128125 -1.0859375 37.640625 C-1.54894967 26.66062206 0.96593926 19.73859111 7.125 10.5 C6.465 10.83 5.805 11.16 5.125 11.5 C2.81417466 11.59735819 0.50037042 11.62977373 -1.8125 11.625 C-3.05902344 11.62757812 -4.30554688 11.63015625 -5.58984375 11.6328125 C-8.875 11.5 -8.875 11.5 -11.875 10.5 C-15.29071853 9.99968794 -15.29071853 9.99968794 -18.875 10.5 C-21.68831378 12.89583651 -21.68831378 12.89583651 -23.875 15.5 C-24.535 15.5 -25.195 15.5 -25.875 15.5 C-25.64883427 9.95893969 -24.36323184 7.04976406 -20.54296875 3.01171875 C-14.23019819 -2.70969157 -7.62820038 -2.51084965 0 0 Z " fill="#ECECEC" transform="translate(60.875,35.5)"/>
<path d="M0 0 C50.82 0 101.64 0 154 0 C154 1.98 154 3.96 154 6 C103.18 6 52.36 6 0 6 C0 4.02 0 2.04 0 0 Z " fill="#1A1918" transform="translate(0,172)"/>
<path d="M0 0 C2.00720923 0.28674418 4.0085944 0.61866701 6 1 C4.14453125 3.44140625 4.14453125 3.44140625 2.2890625 5.8828125 C-1.17675903 11.57516179 -1.22851426 16.87926675 -1.0546875 23.31640625 C-1.02937217 25.15168486 -1.00465196 26.98697175 -0.98046875 28.82226562 C-0.93114488 31.68329442 -0.87543833 34.54387743 -0.80810547 37.40454102 C-0.47747012 52.41981148 -0.59420095 65.02562469 -10.9609375 76.96484375 C-13.48058114 79.47966049 -15.88664183 81.28765301 -19 83 C-17.26190548 78.54210942 -15.26252277 74.23838658 -13.21875 69.9140625 C-10.32777621 63.00167004 -9.74808588 57.36486391 -9.91015625 49.9375 C-9.93057235 47.9869816 -9.95074731 46.03646066 -9.97070312 44.0859375 C-10.01419634 41.03797252 -10.06267322 37.99018376 -10.11645508 34.94238281 C-10.16489677 31.98242815 -10.1946525 29.02270838 -10.22265625 26.0625 C-10.24441422 25.15814209 -10.26617218 24.25378418 -10.28858948 23.32202148 C-10.34715651 15.80354981 -8.5902555 10.61977207 -3.875 4.625 C-3.35679688 3.95726562 -2.83859375 3.28953125 -2.3046875 2.6015625 C-1 1 -1 1 0 0 Z " fill="#0E0E0E" transform="translate(82,37)"/>
<path d="M0 0 C0.99 1.32 1.98 2.64 3 4 C0.03 6.475 0.03 6.475 -3 9 C-3 5.30581799 -1.71820705 3.22163822 0 0 Z " fill="#282828" transform="translate(67,111)"/>
<path d="M0 0 C0.66 0.33 1.32 0.66 2 1 C-0.36689329 3.19219402 -1.51727269 3.9871902 -4.796875 4.07421875 C-5.77140625 3.94660156 -6.7459375 3.81898437 -7.75 3.6875 C-8.73484375 3.56761719 -9.7196875 3.44773438 -10.734375 3.32421875 C-11.48203125 3.21722656 -12.2296875 3.11023437 -13 3 C-13 2.67 -13 2.34 -13 2 C-12.22914062 1.93941406 -11.45828125 1.87882812 -10.6640625 1.81640625 C-9.15972656 1.69072266 -9.15972656 1.69072266 -7.625 1.5625 C-6.62726562 1.48128906 -5.62953125 1.40007813 -4.6015625 1.31640625 C-2.02072387 1.15034374 -2.02072387 1.15034374 0 0 Z " fill="#373737" transform="translate(68,45)"/>
<path d="M0 0 C0 3 0 3 -1 6 C-2.65 6.33 -4.3 6.66 -6 7 C-4.02 4.69 -2.04 2.38 0 0 Z " fill="#1C1C1C" transform="translate(81,108)"/>
</svg>
