{
	"asset":{
		"generator":"Khronos glTF Blender I/O v3.6.27",
		"version":"2.0"
	},
	"scene":0,
	"scenes":[
		{
			"name":"Scene",
			"nodes":[
				0
			]
		}
	],
	"nodes":[
		{
			"mesh":0,
			"name":"Hearing Aids_shell_0",
			"rotation":[
				-0.5266962647438049,
				-0.4717957079410553,
				-0.4717957079410553,
				0.5266960263252258
			],
			"scale":[
				0.11624151468276978,
				0.11624151468276978,
				0.11624152958393097
			],
			"translation":[
				0.4816620349884033,
				-0.6165871024131775,
				2.1135854721069336
			]
		}
	],
	"materials":[
		{
			"name":"shell",
			"pbrMetallicRoughness":{}
		}
	],
	"meshes":[
		{
			"name":"Hearing Aids_shell_0",
			"primitives":[
				{
					"attributes":{
						"POSITION":0,
						"NORMAL":1,
						"TEXCOORD_0":2
					},
					"indices":3,
					"material":0
				}
			]
		}
	],
	"accessors":[
		{
			"bufferView":0,
			"componentType":5126,
			"count":481,
			"max":[
				0.5990569591522217,
				2.6997361183166504,
				6.633959770202637
			],
			"min":[
				-2.0898942947387695,
				-5.247198104858398,
				-2.143915891647339
			],
			"type":"VEC3"
		},
		{
			"bufferView":1,
			"componentType":5126,
			"count":481,
			"type":"VEC3"
		},
		{
			"bufferView":2,
			"componentType":5126,
			"count":481,
			"type":"VEC2"
		},
		{
			"bufferView":3,
			"componentType":5123,
			"count":2367,
			"type":"SCALAR"
		}
	],
	"bufferViews":[
		{
			"buffer":0,
			"byteLength":5772,
			"byteOffset":0,
			"target":34962
		},
		{
			"buffer":0,
			"byteLength":5772,
			"byteOffset":5772,
			"target":34962
		},
		{
			"buffer":0,
			"byteLength":3848,
			"byteOffset":11544,
			"target":34962
		},
		{
			"buffer":0,
			"byteLength":4734,
			"byteOffset":15392,
			"target":34963
		}
	],
	"buffers":[
		{
			"byteLength":20128,
			"uri":"betterImplant.bin"
		}
	]
}
