{
	"asset":{
		"generator":"Khronos glTF Blender I/O v3.6.27",
		"version":"2.0"
	},
	"scene":0,
	"scenes":[
		{
			"name":"Scene",
			"nodes":[
				0,
				1
			]
		}
	],
	"nodes":[
		{
			"mesh":0,
			"name":"Object_4"
		},
		{
			"mesh":1,
			"name":"Rope",
			"rotation":[
				0,
				0,
				-0.000573705998249352,
				1
			],
			"scale":[
				1.4718315601348877,
				1.4718315601348877,
				1.4718315601348877
			],
			"translation":[
				-0.9592944383621216,
				0.3316138684749603,
				-0.9255643486976624
			]
		}
	],
	"materials":[
		{
			"doubleSided":true,
			"name":"Procedural human skin",
			"pbrMetallicRoughness":{
				"metallicFactor":0,
				"roughnessFactor":0.7590909004211426
			}
		},
		{
			"doubleSided":true,
			"name":"Rope",
			"pbrMetallicRoughness":{
				"metallicFactor":0,
				"roughnessFactor":0.699999988079071
			}
		},
		{
			"doubleSided":true,
			"name":"Metallic Simple",
			"pbrMetallicRoughness":{}
		}
	],
	"meshes":[
		{
			"name":"Object_0",
			"primitives":[
				{
					"attributes":{
						"POSITION":0,
						"NORMAL":1,
						"TEXCOORD_0":2
					},
					"indices":3,
					"material":0
				}
			]
		},
		{
			"name":"Circle.001",
			"primitives":[
				{
					"attributes":{
						"POSITION":4,
						"NORMAL":5,
						"TEXCOORD_0":6,
						"TEXCOORD_1":7
					},
					"indices":8,
					"material":1
				},
				{
					"attributes":{
						"POSITION":9,
						"NORMAL":10,
						"TEXCOORD_0":11,
						"TEXCOORD_1":12
					},
					"indices":13,
					"material":2
				}
			]
		}
	],
	"accessors":[
		{
			"bufferView":0,
			"componentType":5126,
			"count":9551,
			"max":[
				0.9491640329360962,
				0.949263870716095,
				0.47933435440063477
			],
			"min":[
				-0.9413355588912964,
				-0.9284655451774597,
				-0.8364344835281372
			],
			"type":"VEC3"
		},
		{
			"bufferView":1,
			"componentType":5126,
			"count":9551,
			"type":"VEC3"
		},
		{
			"bufferView":2,
			"componentType":5126,
			"count":9551,
			"type":"VEC2"
		},
		{
			"bufferView":3,
			"componentType":5123,
			"count":42228,
			"type":"SCALAR"
		},
		{
			"bufferView":4,
			"componentType":5126,
			"count":9135,
			"max":[
				0.5384501218795776,
				0.2785455882549286,
				0.4440619945526123
			],
			"min":[
				-0.22375677525997162,
				-0.2402489185333252,
				0.3162264823913574
			],
			"type":"VEC3"
		},
		{
			"bufferView":5,
			"componentType":5126,
			"count":9135,
			"type":"VEC3"
		},
		{
			"bufferView":6,
			"componentType":5126,
			"count":9135,
			"type":"VEC2"
		},
		{
			"bufferView":7,
			"componentType":5126,
			"count":9135,
			"type":"VEC2"
		},
		{
			"bufferView":8,
			"componentType":5123,
			"count":25920,
			"type":"SCALAR"
		},
		{
			"bufferView":9,
			"componentType":5126,
			"count":4069,
			"max":[
				0.9330857396125793,
				0.7930670976638794,
				0.8303098678588867
			],
			"min":[
				-0.39021754264831543,
				-0.2437661737203598,
				0.285318523645401
			],
			"type":"VEC3"
		},
		{
			"bufferView":10,
			"componentType":5126,
			"count":4069,
			"type":"VEC3"
		},
		{
			"bufferView":11,
			"componentType":5126,
			"count":4069,
			"type":"VEC2"
		},
		{
			"bufferView":12,
			"componentType":5126,
			"count":4069,
			"type":"VEC2"
		},
		{
			"bufferView":13,
			"componentType":5123,
			"count":5868,
			"type":"SCALAR"
		}
	],
	"bufferViews":[
		{
			"buffer":0,
			"byteLength":114612,
			"byteOffset":0,
			"target":34962
		},
		{
			"buffer":0,
			"byteLength":114612,
			"byteOffset":114612,
			"target":34962
		},
		{
			"buffer":0,
			"byteLength":76408,
			"byteOffset":229224,
			"target":34962
		},
		{
			"buffer":0,
			"byteLength":84456,
			"byteOffset":305632,
			"target":34963
		},
		{
			"buffer":0,
			"byteLength":109620,
			"byteOffset":390088,
			"target":34962
		},
		{
			"buffer":0,
			"byteLength":109620,
			"byteOffset":499708,
			"target":34962
		},
		{
			"buffer":0,
			"byteLength":73080,
			"byteOffset":609328,
			"target":34962
		},
		{
			"buffer":0,
			"byteLength":73080,
			"byteOffset":682408,
			"target":34962
		},
		{
			"buffer":0,
			"byteLength":51840,
			"byteOffset":755488,
			"target":34963
		},
		{
			"buffer":0,
			"byteLength":48828,
			"byteOffset":807328,
			"target":34962
		},
		{
			"buffer":0,
			"byteLength":48828,
			"byteOffset":856156,
			"target":34962
		},
		{
			"buffer":0,
			"byteLength":32552,
			"byteOffset":904984,
			"target":34962
		},
		{
			"buffer":0,
			"byteLength":32552,
			"byteOffset":937536,
			"target":34962
		},
		{
			"buffer":0,
			"byteLength":11736,
			"byteOffset":970088,
			"target":34963
		}
	],
	"buffers":[
		{
			"byteLength":981824,
			"uri":"data:application/octet-stream;base64,"
		}
	]
}
