{
	"asset":{
		"generator":"Khronos glTF Blender I/O v3.6.27",
		"version":"2.0"
	},
	"scene":0,
	"scenes":[
		{
			"name":"Scene",
			"nodes":[
				0
			]
		}
	],
	"nodes":[
		{
			"mesh":0,
			"name":"Left_Cochlear",
			"rotation":[
				0.70710688829422,
				0,
				0,
				0.7071066498756409
			]
		}
	],
	"materials":[
		{
			"doubleSided":true,
			"name":"NPR Cartoon (Toon) Effect 07",
			"pbrMetallicRoughness":{}
		}
	],
	"meshes":[
		{
			"name":"Left_Cochlear",
			"primitives":[
				{
					"attributes":{
						"POSITION":0,
						"NORMAL":1,
						"TEXCOORD_0":2
					},
					"indices":3,
					"material":0
				}
			]
		}
	],
	"accessors":[
		{
			"bufferView":0,
			"componentType":5126,
			"count":4586,
			"max":[
				30.745532989501953,
				3.9412479400634766,
				30
			],
			"min":[
				-48.46847152709961,
				-9.164138793945312,
				-43.21293258666992
			],
			"type":"VEC3"
		},
		{
			"bufferView":1,
			"componentType":5126,
			"count":4586,
			"type":"VEC3"
		},
		{
			"bufferView":2,
			"componentType":5126,
			"count":4586,
			"type":"VEC2"
		},
		{
			"bufferView":3,
			"componentType":5123,
			"count":6822,
			"type":"SCALAR"
		}
	],
	"bufferViews":[
		{
			"buffer":0,
			"byteLength":55032,
			"byteOffset":0,
			"target":34962
		},
		{
			"buffer":0,
			"byteLength":55032,
			"byteOffset":55032,
			"target":34962
		},
		{
			"buffer":0,
			"byteLength":36688,
			"byteOffset":110064,
			"target":34962
		},
		{
			"buffer":0,
			"byteLength":13644,
			"byteOffset":146752,
			"target":34963
		}
	],
	"buffers":[
		{
			"byteLength":160396,
			"uri":"data:application/octet-stream;base64,"
		}
	]
}
