{
	"asset":{
		"generator":"Khronos glTF Blender I/O v3.6.27",
		"version":"2.0"
	},
	"scene":0,
	"scenes":[
		{
			"name":"Scene",
			"nodes":[
				0
			]
		}
	],
	"nodes":[
		{
			"mesh":0,
			"name":"implantEar",
			"translation":[
				0.0003685280680656433,
				0.0008787717670202255,
				-0.03252700716257095
			]
		}
	],
	"materials":[
		{
			"doubleSided":true,
			"name":"Scene_-_Root",
			"pbrMetallicRoughness":{
				"metallicFactor":0,
				"roughnessFactor":0.6000000238418579
			}
		},
		{
			"doubleSided":true,
			"name":"NPR Cartoon (Toon) Effect 07",
			"pbrMetallicRoughness":{}
		}
	],
	"meshes":[
		{
			"name":"Object_0.001",
			"primitives":[
				{
					"attributes":{
						"POSITION":0,
						"NORMAL":1,
						"TEXCOORD_0":2
					},
					"indices":3,
					"material":0
				},
				{
					"attributes":{
						"POSITION":4,
						"NORMAL":5,
						"TEXCOORD_0":6
					},
					"indices":7,
					"material":1
				}
			]
		}
	],
	"accessors":[
		{
			"bufferView":0,
			"componentType":5126,
			"count":2044,
			"max":[
				0.941329836845398,
				0.5167700052261353,
				1.201086401939392
			],
			"min":[
				-0.950506329536438,
				-0.78264981508255,
				-0.9525914192199707
			],
			"type":"VEC3"
		},
		{
			"bufferView":1,
			"componentType":5126,
			"count":2044,
			"type":"VEC3"
		},
		{
			"bufferView":2,
			"componentType":5126,
			"count":2044,
			"type":"VEC2"
		},
		{
			"bufferView":3,
			"componentType":5123,
			"count":11757,
			"type":"SCALAR"
		},
		{
			"bufferView":4,
			"componentType":5126,
			"count":4929,
			"max":[
				2.789156913757324,
				0.42327040433883667,
				1.8850808143615723
			],
			"min":[
				-0.4898429214954376,
				-0.49837082624435425,
				-0.5924116969108582
			],
			"type":"VEC3"
		},
		{
			"bufferView":5,
			"componentType":5126,
			"count":4929,
			"type":"VEC3"
		},
		{
			"bufferView":6,
			"componentType":5126,
			"count":4929,
			"type":"VEC2"
		},
		{
			"bufferView":7,
			"componentType":5123,
			"count":6822,
			"type":"SCALAR"
		}
	],
	"bufferViews":[
		{
			"buffer":0,
			"byteLength":24528,
			"byteOffset":0,
			"target":34962
		},
		{
			"buffer":0,
			"byteLength":24528,
			"byteOffset":24528,
			"target":34962
		},
		{
			"buffer":0,
			"byteLength":16352,
			"byteOffset":49056,
			"target":34962
		},
		{
			"buffer":0,
			"byteLength":23514,
			"byteOffset":65408,
			"target":34963
		},
		{
			"buffer":0,
			"byteLength":59148,
			"byteOffset":88924,
			"target":34962
		},
		{
			"buffer":0,
			"byteLength":59148,
			"byteOffset":148072,
			"target":34962
		},
		{
			"buffer":0,
			"byteLength":39432,
			"byteOffset":207220,
			"target":34962
		},
		{
			"buffer":0,
			"byteLength":13644,
			"byteOffset":246652,
			"target":34963
		}
	],
	"buffers":[
		{
			"byteLength":260296,
			"uri":"data:application/octet-stream;base64,"
		}
	]
}
