{
	"asset":{
		"generator":"Khronos glTF Blender I/O v3.6.27",
		"version":"2.0"
	},
	"scene":0,
	"scenes":[
		{
			"name":"Scene",
			"nodes":[
				0,
				1
			]
		}
	],
	"nodes":[
		{
			"mesh":0,
			"name":"Saxophone_Circle.003",
			"scale":[
				0.5619094371795654,
				0.5619094371795654,
				0.5619094371795654
			],
			"translation":[
				0.22596865892410278,
				0.3090800642967224,
				0
			]
		},
		{
			"mesh":1,
			"name":"Cylinder",
			"rotation":[
				0,
				0,
				-0.7071068286895752,
				0.7071068286895752
			],
			"scale":[
				6.514984130859375,
				0.6327052712440491,
				6.514984130859375
			],
			"translation":[
				0.8056383728981018,
				1.1019527912139893,
				0
			]
		}
	],
	"materials":[
		{
			"name":"FFEB3B",
			"pbrMetallicRoughness":{
				"baseColorFactor":[
					1,
					0.8399999737739563,
					0.03999999910593033,
					1
				],
				"metallicFactor":0,
				"roughnessFactor":0.9039215445518494
			}
		},
		{
			"name":"1A1A1A",
			"pbrMetallicRoughness":{
				"baseColorFactor":[
					0.009999999776482582,
					0.009999999776482582,
					0.009999999776482582,
					1
				],
				"metallicFactor":0,
				"roughnessFactor":0.9039215445518494
			}
		}
	],
	"meshes":[
		{
			"name":"Saxophone_Circle.003_1",
			"primitives":[
				{
					"attributes":{
						"POSITION":0,
						"NORMAL":1,
						"TEXCOORD_0":2
					},
					"indices":3,
					"material":0
				},
				{
					"attributes":{
						"POSITION":4,
						"NORMAL":5,
						"TEXCOORD_0":6
					},
					"indices":7,
					"material":1
				}
			]
		},
		{
			"name":"Cylinder",
			"primitives":[
				{
					"attributes":{
						"POSITION":8,
						"NORMAL":9,
						"TEXCOORD_0":10
					},
					"indices":11
				}
			]
		}
	],
	"accessors":[
		{
			"bufferView":0,
			"componentType":5126,
			"count":646,
			"max":[
				1,
				9.452556610107422,
				5.625055313110352
			],
			"min":[
				-1.900758147239685,
				-6.549260139465332,
				-4.2873358726501465
			],
			"type":"VEC3"
		},
		{
			"bufferView":1,
			"componentType":5126,
			"count":646,
			"type":"VEC3"
		},
		{
			"bufferView":2,
			"componentType":5126,
			"count":646,
			"type":"VEC2"
		},
		{
			"bufferView":3,
			"componentType":5123,
			"count":1092,
			"type":"SCALAR"
		},
		{
			"bufferView":4,
			"componentType":5126,
			"count":135,
			"max":[
				-0.002555161714553833,
				7.059833526611328,
				6.868527412414551
			],
			"min":[
				-1.191075086593628,
				-1.79710054397583,
				-3.6274447441101074
			],
			"type":"VEC3"
		},
		{
			"bufferView":5,
			"componentType":5126,
			"count":135,
			"type":"VEC3"
		},
		{
			"bufferView":6,
			"componentType":5126,
			"count":135,
			"type":"VEC2"
		},
		{
			"bufferView":7,
			"componentType":5123,
			"count":207,
			"type":"SCALAR"
		},
		{
			"bufferView":8,
			"componentType":5126,
			"count":192,
			"max":[
				1,
				1,
				1
			],
			"min":[
				-1,
				-1,
				-1
			],
			"type":"VEC3"
		},
		{
			"bufferView":9,
			"componentType":5126,
			"count":192,
			"type":"VEC3"
		},
		{
			"bufferView":10,
			"componentType":5126,
			"count":192,
			"type":"VEC2"
		},
		{
			"bufferView":11,
			"componentType":5123,
			"count":372,
			"type":"SCALAR"
		}
	],
	"bufferViews":[
		{
			"buffer":0,
			"byteLength":7752,
			"byteOffset":0,
			"target":34962
		},
		{
			"buffer":0,
			"byteLength":7752,
			"byteOffset":7752,
			"target":34962
		},
		{
			"buffer":0,
			"byteLength":5168,
			"byteOffset":15504,
			"target":34962
		},
		{
			"buffer":0,
			"byteLength":2184,
			"byteOffset":20672,
			"target":34963
		},
		{
			"buffer":0,
			"byteLength":1620,
			"byteOffset":22856,
			"target":34962
		},
		{
			"buffer":0,
			"byteLength":1620,
			"byteOffset":24476,
			"target":34962
		},
		{
			"buffer":0,
			"byteLength":1080,
			"byteOffset":26096,
			"target":34962
		},
		{
			"buffer":0,
			"byteLength":414,
			"byteOffset":27176,
			"target":34963
		},
		{
			"buffer":0,
			"byteLength":2304,
			"byteOffset":27592,
			"target":34962
		},
		{
			"buffer":0,
			"byteLength":2304,
			"byteOffset":29896,
			"target":34962
		},
		{
			"buffer":0,
			"byteLength":1536,
			"byteOffset":32200,
			"target":34962
		},
		{
			"buffer":0,
			"byteLength":744,
			"byteOffset":33736,
			"target":34963
		}
	],
	"buffers":[
		{
			"byteLength":34480,
			"uri":"data:application/octet-stream;base64,"
		}
	]
}
