{
	"asset":{
		"generator":"Khronos glTF Blender I/O v3.6.27",
		"version":"2.0"
	},
	"extensionsUsed":[
		"KHR_materials_specular",
		"KHR_materials_ior"
	],
	"scene":0,
	"scenes":[
		{
			"name":"Scene",
			"nodes":[
				0
			]
		}
	],
	"nodes":[
		{
			"mesh":0,
			"name":"Faith_face",
			"rotation":[
				0.4999203085899353,
				-0.5000797510147095,
				0.5000797510147095,
				0.4999203383922577
			],
			"scale":[
				5.996393203735352,
				5.996393203735352,
				5.996393203735352
			],
			"translation":[
				0,
				0,
				0.13717882335186005
			]
		}
	],
	"materials":[
		{
			"doubleSided":true,
			"extensions":{
				"KHR_materials_specular":{
					"specularColorFactor":[
						0,
						0,
						0
					]
				},
				"KHR_materials_ior":{
					"ior":1.4500000476837158
				}
			},
			"name":"(null)",
			"pbrMetallicRoughness":{
				"baseColorFactor":[
					0.800000011920929,
					0.800000011920929,
					0.800000011920929,
					1
				],
				"metallicFactor":0
			}
		}
	],
	"meshes":[
		{
			"name":"Faith_face",
			"primitives":[
				{
					"attributes":{
						"POSITION":0,
						"NORMAL":1
					},
					"indices":2,
					"material":0
				}
			]
		}
	],
	"accessors":[
		{
			"bufferView":0,
			"componentType":5126,
			"count":1948,
			"max":[
				0.3021405339241028,
				0.5564932823181152,
				0.7464666366577148
			],
			"min":[
				-0.36544448137283325,
				0.038077354431152344,
				-0.21449017524719238
			],
			"type":"VEC3"
		},
		{
			"bufferView":1,
			"componentType":5126,
			"count":1948,
			"type":"VEC3"
		},
		{
			"bufferView":2,
			"componentType":5123,
			"count":11184,
			"type":"SCALAR"
		}
	],
	"bufferViews":[
		{
			"buffer":0,
			"byteLength":23376,
			"byteOffset":0,
			"target":34962
		},
		{
			"buffer":0,
			"byteLength":23376,
			"byteOffset":23376,
			"target":34962
		},
		{
			"buffer":0,
			"byteLength":22368,
			"byteOffset":46752,
			"target":34963
		}
	],
	"buffers":[
		{
			"byteLength":69120,
			"uri":"data:application/octet-stream;base64,"
		}
	]
}
